<svg width="1920" height="1207" viewBox="0 0 1920 1207" fill="none" xmlns="http://www.w3.org/2000/svg">
<g clip-path="url(#clip0_110_2056)">
<path d="M1367.36 775H1307.01V714.648H1367.36V775ZM1586.3 700.977C1584.09 724.284 1574.85 743.164 1558.57 757.617C1542.42 771.94 1521.53 779.102 1495.88 779.102C1468.01 779.102 1445.29 769.922 1427.71 751.562C1410.26 733.073 1401.54 708.398 1401.54 677.539C1401.54 646.68 1410.46 621.68 1428.3 602.539C1446.27 583.268 1470.22 573.633 1500.17 573.633C1524.26 573.633 1544.18 580.859 1559.94 595.312C1575.82 609.766 1584.61 627.865 1586.3 649.609L1532.01 652.734C1530.18 629.036 1519.9 617.188 1501.15 617.188C1478.1 617.188 1466.58 636.068 1466.58 673.828C1466.58 698.958 1469.77 714.909 1476.15 721.68C1482.66 728.451 1490.54 731.836 1499.78 731.836C1517.75 731.836 1528.49 720.443 1532.01 697.656L1586.3 700.977ZM1699.39 573.633C1729.47 573.633 1752.91 583.464 1769.7 603.125C1786.63 622.786 1795.09 647.396 1795.09 676.953C1795.09 706.12 1786.3 730.469 1768.73 750C1751.28 769.401 1728.04 779.102 1699 779.102C1670.88 779.102 1648.35 769.466 1631.42 750.195C1614.62 730.924 1606.23 706.185 1606.23 675.977C1606.23 655.013 1610 637.24 1617.55 622.656C1625.24 607.943 1635.72 596.094 1649 587.109C1662.28 578.125 1679.08 573.633 1699.39 573.633ZM1700.95 611.719C1689.89 611.719 1681.55 616.016 1675.95 624.609C1670.35 633.073 1667.55 650 1667.55 675.391C1667.55 698.698 1670.22 715.43 1675.56 725.586C1680.9 735.742 1689.23 740.82 1700.56 740.82C1710.46 740.82 1718.47 736.523 1724.59 727.93C1730.71 719.206 1733.77 702.669 1733.77 678.32C1733.77 652.409 1731.03 634.831 1725.56 625.586C1720.22 616.341 1712.02 611.719 1700.95 611.719ZM2113.26 775H2055.05V665.82C2055.05 650.456 2054.6 640.495 2053.69 635.938C2052.78 631.25 2050.37 627.409 2046.46 624.414C2042.68 621.289 2037.41 619.727 2030.64 619.727C2024.26 619.727 2017.75 622.005 2011.11 626.562C2004.47 631.12 2001.15 644.206 2001.15 665.82V775H1943.14V665.82C1943.14 650.065 1942.42 639.909 1940.99 635.352C1939.56 630.664 1936.83 626.888 1932.79 624.023C1928.88 621.159 1923.87 619.727 1917.75 619.727C1907.72 619.727 1900.24 622.917 1895.29 629.297C1890.47 635.547 1888.06 647.721 1888.06 665.82V775H1831.62V577.734H1886.3V607.812C1895.55 585.026 1914.04 573.633 1941.77 573.633C1966.9 573.633 1985.07 585.026 1996.27 607.812C2007.2 585.026 2026.28 573.633 2053.49 573.633C2066.51 573.633 2077.71 576.302 2087.09 581.641C2096.46 586.979 2103.17 593.945 2107.2 602.539C2111.24 611.133 2113.26 625.911 2113.26 646.875V775Z" fill="#4F5C69" fill-opacity="0.15"/>
<path d="M2.45312 121.734L-56.9219 319H-108.289L-139.539 192.047L-170.594 319H-219.617L-280.359 121.734H-219.617L-187.586 242.242L-157.508 121.734H-104.773L-75.8672 243.023L-42.4688 121.734H2.45312ZM291.125 121.734L231.75 319H180.383L149.133 192.047L118.078 319H69.0547L8.3125 121.734H69.0547L101.086 242.242L131.164 121.734H183.898L212.805 243.023L246.203 121.734H291.125ZM579.797 121.734L520.422 319H469.055L437.805 192.047L406.75 319H357.727L296.984 121.734H357.727L389.758 242.242L419.836 121.734H472.57L501.477 243.023L534.875 121.734H579.797Z" fill="#495663" fill-opacity="0.15"/>
<path d="M81.6484 1179H21.2969V1118.65H81.6484V1179ZM183.602 1179H127.156V981.734H180.477V1018.45C188.68 991.109 202.872 977.438 223.055 977.438C225.919 977.438 229.435 977.633 233.602 978.023V1035.45C221.753 1035.45 212.508 1037.27 205.867 1040.91C199.357 1044.56 194.018 1051.14 189.852 1060.64C185.685 1070.02 183.602 1082.71 183.602 1098.73V1179ZM434.773 981.734V1179H380.867V1145.41C370.711 1170.54 351.31 1183.1 322.664 1183.1C307.82 1183.1 296.427 1180.37 288.484 1174.9C280.542 1169.3 274.812 1161.75 271.297 1152.24C267.911 1142.61 266.219 1128.74 266.219 1110.64V981.734H322.664V1110.64C322.664 1128.35 329.956 1137.2 344.539 1137.2C351.961 1137.2 358.406 1135.12 363.875 1130.95C369.344 1126.66 372.794 1122.1 374.227 1117.28C375.789 1112.46 376.57 1104.2 376.57 1092.48V981.734H434.773Z" fill="#4F5C69" fill-opacity="0.15"/>
</g>
<defs>
<clipPath id="clip0_110_2056">
<rect width="1920" height="1207" fill="white"/>
</clipPath>
</defs>
</svg>
